<?xml version="1.0" encoding="UTF-8" standalone="no"?>
<!-- Created with Inkscape (http://www.inkscape.org/) -->

<svg
   xmlns:dc="http://purl.org/dc/elements/1.1/"
   xmlns:cc="http://creativecommons.org/ns#"
   xmlns:rdf="http://www.w3.org/1999/02/22-rdf-syntax-ns#"
   xmlns:svg="http://www.w3.org/2000/svg"
   xmlns="http://www.w3.org/2000/svg"
   xmlns:sodipodi="http://sodipodi.sourceforge.net/DTD/sodipodi-0.dtd"
   xmlns:inkscape="http://www.inkscape.org/namespaces/inkscape"
   width="1182.5106"
   height="1106.8165"
   id="svg2"
   version="1.1"
   inkscape:version="0.48.4 r9939"
   inkscape:export-filename="C:\Users\Rafael\Downloads\kissing-jessica-stein-5119b1ed79ca9.png"
   inkscape:export-xdpi="90"
   inkscape:export-ydpi="90"
   sodipodi:docname="New document 1">
  <defs
     id="defs4" />
  <sodipodi:namedview
     id="base"
     pagecolor="#ffffff"
     bordercolor="#666666"
     borderopacity="1.0"
     inkscape:pageopacity="0"
     inkscape:pageshadow="2"
     inkscape:zoom="0.7"
     inkscape:cx="821.56924"
     inkscape:cy="389.05912"
     inkscape:document-units="px"
     inkscape:current-layer="layer1"
     showgrid="false"
     fit-margin-top="0"
     fit-margin-left="0"
     fit-margin-right="0"
     fit-margin-bottom="0"
     inkscape:window-width="1366"
     inkscape:window-height="706"
     inkscape:window-x="-8"
     inkscape:window-y="-8"
     inkscape:window-maximized="1" />
  <metadata
     id="metadata7">
    <rdf:RDF>
      <cc:Work
         rdf:about="">
        <dc:format>image/svg+xml</dc:format>
        <dc:type
           rdf:resource="http://purl.org/dc/dcmitype/StillImage" />
        <dc:title></dc:title>
      </cc:Work>
    </rdf:RDF>
  </metadata>
  <g
     inkscape:label="Layer 1"
     inkscape:groupmode="layer"
     id="layer1"
     transform="translate(-51.601871,28.188907)">
    <g
       id="g10"
       transform="matrix(1.3333333,0,0,-1.3333333,-38.310648,1149.8069)">
      <g
         id="g12"
         transform="scale(0.1,0.1)">
        <path
           d="m 2526.2,8772.8 c 452.6,104.4 936.2,77.8 1372.4,-83.5 482.6,-174.8 902.1,-511.9 1183.4,-940.5 25.9,21.4 41.3,51.9 60.7,78.7 217.3,304.7 506.1,558.3 837.6,732.2 259.6,139 546.2,224 837.8,261.1 247.3,24.7 498.5,17.3 742.8,-30.3 380.8,-73.2 741.6,-243.1 1043.1,-486.6 425.5,-341.7 730.4,-832.8 840.9,-1367.8 27,-120.2 39.8,-242.9 50.9,-365.4 -1.2,-112.9 7.8,-226.7 -8.5,-338.9 -31.9,-345.3 -153,-679.6 -334.8,-974 -162.2,-268.6 -372.5,-505.8 -605.5,-715 -69.4,-64.1 -146.7,-119.1 -212.5,-187.2 -705,-665 -1410.7,-1329.4 -2115.3,-1994.7 -40.3,-36.1 -75.8,-78.8 -122.2,-107.2 -4.6,168.7 -0.6,337.6 -1.9,506.3 0.2,480.1 -0.2,960.3 0.4,1440.4 -8.2,203.9 -67.1,409.7 -191.9,573.6 -174.4,231.3 -457.7,363.1 -743,384.4 -181.1,14.4 -365.9,-15.5 -533.2,-86.5 C 4459.9,5000.3 4311.9,4881 4212,4728 c -117.9,-178.1 -163.7,-396.5 -157.9,-608 0,-570 0.2,-1140 0.1,-1710 -0.1,-47.7 1.4,-95.6 -2.1,-143.2 -27.6,16.7 -50.3,39.9 -74.1,61.3 -764,706 -1530,1409.7 -2292.2,2117.7 -75.4,74.9 -160.2,139.5 -234.9,215.1 -359.1,357.7 -619.701,816.9 -727.798,1313.1 -55.102,240.9 -59,491.2 -34,736.1 59.597,541.1 312.798,1058.4 703.198,1437.6 310.7,307.7 708.2,526 1133.9,625.1 m -353.5,-725.9 c -113.6,-121.5 -222.3,-249 -308.5,-391.9 -266.7,-420.2 -388.6,-929.7 -344.3,-1425.2 30.3,-367.9 151.1,-728.7 350.3,-1039.7 89,-143.9 199.2,-272.8 314.7,-395.9 98.5,-1.5 197,0 295.5,-0.9 -11.6,20 -27.1,37.3 -43.2,53.8 -348.4,369.5 -570.6,857.2 -614.4,1363.6 -16.3,99 -7,199.6 -9.5,299.4 -2.5,57.2 8.7,113.6 13.6,170.3 51.1,477.3 258.1,936.2 581.4,1291 25.2,28.8 57.5,52.2 75,87 -84.5,4.8 -169.2,1.9 -253.8,2.8 -19.1,-2 -42.9,2.1 -56.8,-14.3 m 5516.7,11.3 c 13.9,-18.7 29.1,-36.4 45.1,-53.4 125.2,-134.7 237.3,-282.3 326.9,-443.1 293.6,-512.2 375.4,-1139.4 227,-1710.5 -93.5,-370.7 -284.1,-715.7 -544.3,-995.5 -19.4,-19.6 -40.5,-38 -54.6,-62.1 98.8,0 197.7,-0.4 296.6,0.4 156.4,157.8 292.3,336.6 397.7,532.4 199.4,366.2 295.1,787.4 276.3,1203.7 -16.6,376.1 -125.8,748.2 -318.1,1071.9 -93.3,158.1 -207.4,303.3 -333.4,436.6 -21,27.9 -58,22.4 -88.6,22.8 -76.9,-1.8 -153.8,2.2 -230.6,-3.2 M 3000.6,7689.1 c -262.4,-271.2 -436.5,-626.3 -489.1,-1000 -21.2,-121.8 -14.8,-245.8 -15,-368.8 21.9,-440 215.6,-866.5 526.2,-1178 102.3,-2 204.6,-0.9 306.9,-0.1 -85.7,94.6 -171,190.5 -238.4,299.4 -150.6,230.7 -245.1,497.2 -277,770.6 -16.5,98.2 -11.3,198.2 -10.3,297.3 18.4,444.5 209.1,878.4 522.8,1193.8 -19.9,13 -44.3,10.1 -66.7,10.7 -73.4,-1.9 -146.9,1.3 -220.2,-1.1 -16.9,0.7 -28,-13.5 -39.2,-23.8 m 3846.9,22.2 c 16.6,-33.1 45.2,-57.2 69.7,-84.2 111.3,-126.7 206.1,-268.2 278,-420.8 176,-367.1 221.7,-794.2 129.3,-1190.5 -73.3,-329.8 -246.1,-634.4 -483.7,-873.8 102.6,-1.3 205.2,-0.7 307.9,-0.4 114.7,114.5 214.1,244.2 294.2,385.2 214.3,374.4 287.8,826.2 204,1249.3 -66.2,347.1 -237.7,673.4 -486.5,924.3 -18.7,18.3 -46.9,12.2 -70.4,13.6 -80.8,-2.2 -161.8,2.5 -242.5,-2.7 M 3833.8,7325.9 c -182.2,-185.6 -303.1,-429.3 -344.3,-686 -17.5,-98.8 -14.2,-199.6 -12.2,-299.5 19.3,-296.4 148.7,-584.1 355.9,-796.8 19,-22.5 50.8,-15.3 76.7,-17.2 67.4,1.6 134.9,-2.2 202.2,2.8 -23.5,39.6 -58.8,70 -85.9,106.8 -207.7,256.1 -307.2,595.9 -273.2,923.6 24.5,261.2 133.8,513.4 306.2,711 19.1,22.2 42.9,41.4 54.7,68.9 -67.9,6 -136,1.5 -204,3.1 -25.7,-1 -56.2,3.6 -76.1,-16.7 m 2224.5,14 c 25,-40.9 61.9,-72.3 90.8,-110.3 177.7,-225.1 282.5,-511.7 274.8,-799.6 6.1,-296.6 -106,-591.5 -295.9,-818 -23,-27.7 -49.2,-52.8 -69.7,-82.6 80.6,-4.9 161.4,-2.4 242.1,-2.3 40.7,-0.6 59.6,42.6 85.5,67.1 221.6,250.5 335.4,592.1 310.8,925.4 -16.2,301.2 -148.5,592.7 -358.2,808.5 -14.5,16.9 -38.6,13.2 -58.2,14.7 -74,-0.5 -148.1,2.3 -222,-2.9 M 4983.5,7035.6 c -165.3,-19.8 -320.6,-104.4 -428.6,-230.7 -105.5,-121.9 -167.6,-283 -163.4,-444.8 -3.5,-197.2 90.3,-391.4 241,-517.6 200.9,-172.1 506.3,-211.1 741.3,-86.9 189.4,91.9 327.3,278.8 365.3,485.1 18.9,121.3 11.1,248.7 -34.4,363.6 -48.4,129 -139.1,239.9 -251,319.3 -136.9,90.7 -306.6,137.4 -470.2,112 M 1229.6,1752 c 98.1,2.1 196.2,2.1 294.3,0 2.3,-160.5 2.3,-321.2 -0.5,-481.7 32.3,40.7 53.8,89.3 89,127.8 86.7,40.7 188.7,56 281,25.3 58.1,-19.8 106.4,-64.9 128,-122.7 44.2,-94 31.2,-200.2 33.1,-300.802 -1.3,-147 2.2,-294.097 -2,-441.097 -97.2,-2 -194.6,-3.699 -291.7,0.699 -5.4,200.102 -0.6,400.398 -4,600.5 -0.7,32.6 -34.4,59.2 -66,57.3 -56.4,2.9 -122.1,-2.9 -165.1,-42.1 -3.3,-205.399 2,-411.2 -3.1,-616.7 -97.1,-2.102 -194.2,-2.398 -291.3,0.301 -1.3,397.699 -3,795.499 -1.7,1193.199 m 3783.7,-165.4 c 18.6,19 34.6,41.4 57.5,55.6 39.7,4.9 79.9,1.5 119.9,0.2 0.8,-73.4 -1.1,-146.8 0.6,-220.2 60.4,0 120.8,1.1 181.2,-1 2.5,-61 2.2,-122.1 0.1,-183.1 -60.4,-2.3 -120.8,-0.3 -181.2,-0.5 -5.5,-99.1 -0.7,-198.4 -3.1,-297.6 0.9,-58.898 -4.4,-118.5 6.3,-176.801 3.5,-26.097 33.3,-32.301 55,-35.097 43.1,-3.602 86.4,-1.204 129.6,-0.704 3.3,-49.296 12.3,-98.199 14,-147.597 1.3,-15.801 -19.5,-16.699 -29.8,-22.5 -94.8,-23 -196.2,-31.5 -291.1,-4.5 -71.2,19.801 -129.6,78 -151.9,148.097 -23.2,67 -25.1,138.903 -24.1,209.102 0.7,109.1 -1,218.1 0.8,327.2 -36.4,-0.7 -72.8,0.1 -109.2,1.2 3.4,44.3 -18,100.5 19.8,134.4 68.7,71.1 137,142.6 205.6,213.8 M 2554.1,1435 c 102.7,9.4 212.2,5 304.3,-46.3 74.1,-41.6 123,-118.7 140.9,-200.5 26.6,-93.4 16.3,-191.2 19.7,-287.001 -170.7,-1.801 -341.4,-1.699 -512.1,-1 -3.6,-42 2.9,-88.301 33.5,-119.801 22.4,-24.898 57.1,-33.199 89.4,-34 75.6,-2.097 152.6,-2.199 226.3,17.204 27.9,7.398 56,14.199 84.2,20.597 13.6,-60 28.1,-120.199 35.9,-181.301 -29.2,-21.199 -66.8,-26.199 -100.4,-37.796 -82.3,-26.801 -169.7,-31.403 -255.6,-29.102 -88.3,2.102 -176.9,25.801 -252.5,71.898 C 2264,675.5 2207.9,798.5 2200.2,919.5 c -11.3,121.5 5.2,252.1 75.3,354.9 62.3,92.5 169.5,147.5 278.6,160.6 m 5.1,-194.2 c -57.3,-34.8 -51.9,-111.9 -57.8,-170.3 83.4,-6 167.2,-2.9 250.8,-1.8 2.5,57.8 4.9,128.8 -43.4,169.7 -45.2,23.5 -103.2,21.6 -149.6,2.4 m 601.6,116.2 c 107.2,45.7 221.3,81.5 339,81.3 97.4,3.6 203.1,-3.9 283.8,-64.6 80.6,-65.5 103.9,-175.2 109.1,-274 2.2,-125.399 -0.4,-251.001 1.2,-376.501 6.3,-6.199 12.8,-12.5 19.2,-19 21.5,0 43,-0.699 64.3,-3.5 -1.1,-41.5 15.7,-87.398 -0.8,-126.398 -84.4,-50.199 -189.9,-45.301 -281.8,-20.602 -20.6,37.199 -43.5,73.102 -66.9,108.5 -24.6,-27.398 -34.3,-64.597 -58.2,-92.301 -75.6,-40.5 -166.1,-38.796 -249,-28.796 -83.7,10.699 -166.2,63.699 -191,147.5 -21.1,78.699 -18.6,167.597 22.1,239.699 24.3,38.398 60.1,70 102.3,87.399 108.8,47.4 229.1,55.1 345.8,66.5 3.4,32.8 6.2,68.1 -10.1,98 -11.6,21.5 -37.2,27.5 -59.5,29.8 -62.4,6.6 -125.4,-2.3 -186.4,-15.4 -47,-9.8 -91.8,-28.8 -139.8,-33.8 -11,66.2 -33.9,129.8 -43.3,196.2 m 279.9,-457.5 c -31.6,-7.801 -53.4,-36.898 -54.2,-69.102 -3.1,-39.597 -4.6,-95.5 39.6,-113.296 56,-16.704 127.3,-15.704 172.5,25.398 10.6,59.398 2.8,121 3.2,181.102 -54.3,-0.704 -108.9,-9.301 -161.1,-24.102 m 1042.2,508 c 73,34.8 163.8,42.7 239.6,13.3 -12.3,-83.3 -22.2,-166.9 -35,-250.1 -98.4,9.8 -200.8,15.2 -294.3,-22.9 0.2,-196.402 2.4,-392.8 -1.4,-589.198 -97,-1.903 -194.2,-3.403 -291.1,0.796 -5.2,163.403 -1.4,327.102 -3.5,490.602 0.8,123.6 -2.3,247.3 1.3,370.9 69.9,1 140.2,4.5 209.9,-0.9 37.3,-52.2 44.2,-121.8 87,-170.4 25.9,54.2 52.8,109.2 87.5,157.9"
           style="fill:#cb3029;fill-opacity:1;fill-rule:nonzero;stroke:none"
           id="path14"
           inkscape:connector-curvature="0" />
        <path
           d="m 2172.7,8046.9 c 13.9,16.4 37.7,12.3 56.8,14.3 84.6,-0.9 169.3,2 253.8,-2.8 -17.5,-34.8 -49.8,-58.2 -75,-87 -323.3,-354.8 -530.3,-813.7 -581.4,-1291 -4.9,-56.7 -16.1,-113.1 -13.6,-170.3 2.5,-99.8 -6.8,-200.4 9.5,-299.4 43.8,-506.4 266,-994.1 614.4,-1363.6 16.1,-16.5 31.6,-33.8 43.2,-53.8 -98.5,0.9 -197,-0.6 -295.5,0.9 -115.5,123.1 -225.7,252 -314.7,395.9 -199.2,311 -320,671.8 -350.3,1039.7 -44.3,495.5 77.6,1005 344.3,1425.2 86.2,142.9 194.9,270.4 308.5,391.9 m 5516.7,11.3 c 76.8,5.4 153.7,1.4 230.6,3.2 30.6,-0.4 67.6,5.1 88.6,-22.8 126,-133.3 240.1,-278.5 333.4,-436.6 192.3,-323.7 301.5,-695.8 318.1,-1071.9 18.8,-416.3 -76.9,-837.5 -276.3,-1203.7 -105.4,-195.8 -241.3,-374.6 -397.7,-532.4 -98.9,-0.8 -197.8,-0.4 -296.6,-0.4 14.1,24.1 35.2,42.5 54.6,62.1 260.2,279.8 450.8,624.8 544.3,995.5 148.4,571.1 66.6,1198.3 -227,1710.5 -89.6,160.8 -201.7,308.4 -326.9,443.1 -16,17 -31.2,34.7 -45.1,53.4 M 3000.6,7689.1 c 11.2,10.3 22.3,24.5 39.2,23.8 73.3,2.4 146.8,-0.8 220.2,1.1 22.4,-0.6 46.8,2.3 66.7,-10.7 C 3013,7387.9 2822.3,6954 2803.9,6509.5 c -1,-99.1 -6.2,-199.1 10.3,-297.3 31.9,-273.4 126.4,-539.9 277,-770.6 67.4,-108.9 152.7,-204.8 238.4,-299.4 -102.3,-0.8 -204.6,-1.9 -306.9,0.1 -310.6,311.5 -504.3,738 -526.2,1178 0.2,123 -6.2,247 15,368.8 52.6,373.7 226.7,728.8 489.1,1000 m 3846.9,22.2 c 80.7,5.2 161.7,0.5 242.5,2.7 23.5,-1.4 51.7,4.7 70.4,-13.6 248.8,-250.9 420.3,-577.2 486.5,-924.3 83.8,-423.1 10.3,-874.9 -204,-1249.3 -80.1,-141 -179.5,-270.7 -294.2,-385.2 -102.7,-0.3 -205.3,-0.9 -307.9,0.4 237.6,239.4 410.4,544 483.7,873.8 92.4,396.3 46.7,823.4 -129.3,1190.5 -71.9,152.6 -166.7,294.1 -278,420.8 -24.5,27 -53.1,51.1 -69.7,84.2 M 3833.8,7325.9 c 19.9,20.3 50.4,15.7 76.1,16.7 68,-1.6 136.1,2.9 204,-3.1 -11.8,-27.5 -35.6,-46.7 -54.7,-68.9 -172.4,-197.6 -281.7,-449.8 -306.2,-711 -34,-327.7 65.5,-667.5 273.2,-923.6 27.1,-36.8 62.4,-67.2 85.9,-106.8 -67.3,-5 -134.8,-1.2 -202.2,-2.8 -25.9,1.9 -57.7,-5.3 -76.7,17.2 -207.2,212.7 -336.6,500.4 -355.9,796.8 -2,99.9 -5.3,200.7 12.2,299.5 41.2,256.7 162.1,500.4 344.3,686 m 2224.5,14 c 73.9,5.2 148,2.4 222,2.9 19.6,-1.5 43.7,2.2 58.2,-14.7 209.7,-215.8 342,-507.3 358.2,-808.5 24.6,-333.3 -89.2,-674.9 -310.8,-925.4 -25.9,-24.5 -44.8,-67.7 -85.5,-67.1 -80.7,-0.1 -161.5,-2.6 -242.1,2.3 20.5,29.8 46.7,54.9 69.7,82.6 189.9,226.5 302,521.4 295.9,818 7.7,287.9 -97.1,574.5 -274.8,799.6 -28.9,38 -65.8,69.4 -90.8,110.3"
           style="fill:#ff8080;fill-opacity:1;fill-rule:nonzero;stroke:none"
           id="path16"
           inkscape:connector-curvature="0" />
        <path
           d="m 843.898,1804.4 c 43.602,6.2 90.903,3.5 128.602,-21.6 82.7,-48.4 90.7,-182.4 16.398,-241.8 -76.597,-62.9 -213.097,-43 -255.296,51 -38.403,85.9 13.796,199.3 110.296,212.4 m 7460.002,-1.1 c 46.1,8.2 96.9,5.3 136.8,-21.8 78.7,-47.4 88.7,-172.2 21.8,-233.9 -59.5,-54.9 -159.4,-57.1 -222.5,-7.2 -63.8,50.6 -69.6,155.4 -15.8,215.2 20.4,24 48.9,40.8 79.7,47.7 m -605.2,-51.2 c 98.5,0.9 197,0.3 295.4,0.3 1.2,-398.5 1.1,-797.099 0.1,-1195.599 -70.8,0.597 -141.9,-2.602 -212.5,1.398 -21.6,34.903 -33,75.102 -54.6,109.903 -2.9,-0.903 -8.8,-2.602 -11.7,-3.5 -26.6,-33.903 -45.3,-73.5 -73.5,-106.301 -17.1,-14.301 -41.6,-14.102 -62.4,-19.699 -108.7,-14.403 -229.5,1.898 -314.4,76.597 -74.1,63.602 -108.7,160.102 -122.5,254.199 -14.5,118.704 -10.9,242.802 30.9,356.002 31.9,86.8 99.5,162 188.1,192.4 111.2,38.5 244.3,26.9 336.9,-50.1 0.2,128.1 -0.3,256.3 0.2,384.4 m -240.8,-598.8 c -21.7,-58.6 -14.9,-122.1 -16.3,-183.3 1.6,-61.102 -5.7,-124.602 16.5,-183.102 10.5,-29.097 33.2,-54.796 64,-63 59.4,-19.699 123.6,-2.597 174.9,30.301 3.3,145 1,290.001 1.1,435.001 -51.1,26.7 -110.4,42.7 -167.9,30.3 -34.5,-5.8 -61.1,-34.1 -72.3,-66.2 m -1526.6,265.4 c 53.6,19.8 112,20.8 168.3,15 14.9,-1.5 31.4,-3.1 43.2,-13.8 -8.4,-76 -22.7,-151.4 -30.4,-227.5 1.2,-12.5 -7.7,-28.7 -22.6,-22 -91.1,16.2 -185.8,10.7 -273.2,-20.3 -0.9,-196.998 -1.5,-394.1 0.3,-591.1 -98.4,-4.898 -197.2,-2.602 -295.6,-1.301 1.3,286.903 0.4,573.901 0.4,860.801 71.4,-0.7 142.9,1.6 214.4,-1.3 21.6,-54.7 46.6,-108.1 68.7,-162.8 2.9,-0.3 8.9,-1 11.9,-1.4 27.6,46.7 50.9,95.8 78.5,142.4 6.8,14 22.7,18.1 36.1,23.3 m 303,-66.5 c 148.5,75 321.1,102.2 485.6,77.5 81.1,-11.8 160.7,-55.5 199.7,-130 61.4,-116.7 47.4,-252.6 49.1,-379.802 1.6,-62.796 -3.7,-126.199 2.8,-188.898 6.2,-38.199 53.8,-23.301 80.6,-27.199 1.2,-40.699 9.3,-81.301 7.5,-122 -31.3,-30.199 -78,-37.301 -119.3,-44.5 -55.7,-4 -114.1,-3.699 -166.9,16.097 -29.6,31.704 -40.9,77.704 -72.6,106.903 -25.2,-26.801 -30.3,-68.199 -58.1,-93.102 -74.4,-38.097 -162.1,-37.301 -243.1,-27.801 -88.8,11.403 -177.2,69.403 -198.2,160.704 -15.1,78.597 -14.3,167.597 31.4,236.597 34.5,52 93.2,81.401 151.1,99.401 94.9,30.1 194.8,34.8 293,45.6 -0.5,42.3 10,107.2 -42.5,122.6 -118.9,27.6 -237.7,-18.3 -352.8,-43.8 -16.3,63.8 -30.7,128 -47.3,191.7 M 6498,891.801 c -44.9,-25.301 -37.9,-84.903 -33,-128.199 6.5,-44.704 56.6,-56.801 94.8,-56.102 40.2,1.199 86.7,5.699 116.1,36.301 3,61.301 0.3,122.898 1,184.301 -60,-9 -123,-11 -178.9,-36.301 M 8994.9,1430.7 c 127.6,19.3 267.1,5.6 375.4,-69.9 91.1,-61.8 149,-165.2 164.9,-273.2 20.2,-126.998 3.6,-265.1 -68,-374.299 -63.4,-97.403 -173,-157.903 -286.7,-173.801 -103.7,-13.199 -213.3,-4.602 -307.7,43.102 -86.9,42.199 -155.2,119.097 -189.4,209 -36.1,93.898 -39.5,197.296 -26.1,296.098 18.2,108.9 74.9,214.8 168.9,276.1 50.5,34.4 109,55.4 168.7,66.9 m 48.4,-204.7 c -32.2,-5.8 -58.4,-31 -69.2,-61.3 -15.7,-43 -18.9,-89.3 -18.7,-134.8 0.4,-74.201 -4.8,-150.9 21.2,-221.9 12.1,-32.898 39.7,-60.301 74.8,-67.398 53.1,-12.102 121.7,-6.204 152.6,45.199 35.5,65.301 30.9,142.301 31.9,214.097 -1.4,64.902 3,135.702 -33.4,192.702 -37.1,46.3 -106.3,45.6 -159.2,33.4 m -8310.999,83.7 c -3.403,58 50.301,107.8 106.699,108.2 44.5,-0.3 93.301,8.2 133.602,-15.5 30.198,-16.9 55.298,-47.7 55.698,-83.7 0.5,-129.5 6.2,-259.1 0.5,-388.7 1.4,-124.199 5.1,-248.5 0.1,-372.602 -99.099,-1.097 -198.201,-2.199 -297.201,0.5 1.301,250.602 0,501.202 0.602,751.802 m 7511.099,87.2 c 39.6,29 91,21.1 136.9,21.4 58.8,0.3 116.7,-47.5 116.1,-108.6 1.6,-250.4 -0.8,-500.899 1.2,-751.302 -100.1,-4.097 -200.3,-1.296 -300.4,-1.398 -0.7,244.301 0,488.7 -0.4,733 -1.4,40 10.9,84.5 46.6,106.9"
           style="fill:#000000;fill-opacity:1;fill-rule:nonzero;stroke:none"
           id="path18"
           inkscape:connector-curvature="0" />
      </g>
    </g>
  </g>
</svg>
